<svg width="50" height="60" xmlns="http://www.w3.org/2000/svg" xmlns:xlink="http://www.w3.org/1999/xlink" preserveAspectRatio="xMidYMid meet">
 <defs>
  <path id="b2xIMBipv" d="m251.36,139.43l7.34,1.56l-51.56,242.58l-7.34,-1.56l51.56,-242.58z"/>
  <path id="a2gMAz2HSS" d="m67,270.82c-1.32,-7.47 -1.09,-15.12 0.69,-22.49c1.36,-5.67 1.33,-5.56 2.34,-9.74c2.95,-12.27 8.32,-23.82 15.8,-33.99c1.92,-2.61 -2.27,3.08 0,0c6.36,-8.64 14.09,-16.17 22.89,-22.31c3.95,-2.76 2.77,-1.93 6.78,-4.73c8.56,-5.96 18.35,-9.91 28.65,-11.53c4.47,-0.71 0.53,-0.08 4.57,-0.72c11.79,-1.86 23.79,-2.02 35.62,-0.46c5.54,0.73 2.25,0.3 7.28,0.96c13.42,1.77 26.29,6.49 37.68,13.81c2.36,1.52 8.26,5.31 17.7,11.38c-9.39,4.13 -15.26,6.71 -17.61,7.75c-4.88,2.15 -9.33,5.19 -13.1,8.96c-1.16,1.16 2.08,-2.08 1.17,-1.17c-4.52,4.52 -7.45,10.38 -8.35,16.7c-0.22,1.5 -0.75,5.25 -1.61,11.26c-3.77,-4.77 -6.12,-7.76 -7.06,-8.95c-5.22,-6.61 -11.91,-11.92 -19.53,-15.5c-1.08,-0.51 6.24,2.93 4.9,2.3c-6.81,-3.2 -14.18,-5.03 -21.7,-5.39c-1.92,-0.09 3.24,0.15 1.2,0.05c-7.18,-0.34 -14.38,0.19 -21.44,1.56c-1.97,0.39 2.91,-0.56 0.98,-0.19c-7.2,1.41 -14.18,3.78 -20.74,7.07c-2.82,1.41 -0.19,0.09 -2.71,1.35c-7.55,3.78 -14.47,8.71 -20.51,14.62c-2.88,2.81 -0.7,0.68 -3.15,3.08c-7.36,7.2 -12.62,16.26 -15.22,26.21c-0.9,3.46 -0.69,2.65 -1.86,7.11c-1.75,6.7 -1.97,13.71 -0.64,20.51c0.38,1.94 1.34,6.79 2.86,14.55l10.12,26.12c-6.08,-9.81 -9.88,-15.94 -11.4,-18.39c-7,-11.3 -11.79,-23.84 -14.1,-36.93c-0.5,-2.83 0.3,1.67 -0.5,-2.86z"/>
  <path id="c12pcZ9ThM" d="m102.35,246.41l-3.75,12.78c-0.23,3.65 -0.37,5.93 -0.43,6.85c-0.76,12.4 1.91,24.77 7.72,35.75c0.92,1.74 -3.66,-6.91 -2.35,-4.43c4.47,8.44 11.99,14.87 21.02,17.99c2.99,1.03 6.24,2.15 11.31,3.9c0,0 7.4,1.99 7.4,1.99c3.95,0.77 4.04,0.78 6,1.17c9.13,1.78 18.43,2.54 27.72,2.27c1.3,-0.04 -2.79,0.08 0,0c4.18,-0.12 8.16,-1.83 11.11,-4.79c0.48,-0.48 -0.92,0.92 0,0c1.16,-1.15 0.8,-3.1 -0.69,-3.76c-1.99,-0.89 -6.96,-3.1 -14.91,-6.63c0,0 0,0 0,0c1.29,-9.04 -0.68,-18.24 -5.57,-25.95c-0.25,-0.4 -0.9,-1.42 -1.93,-3.05c4.13,-1.18 6.7,-1.92 7.74,-2.21c10.58,-3.03 21.97,-1.04 30.91,5.4c1.45,1.04 5.06,3.64 10.85,7.81l-11,52c-6.45,2.06 -10.47,3.35 -12.09,3.87c-8.52,2.73 -17.5,3.73 -26.42,2.95c-5.3,-0.47 -11.47,-1.01 -17.71,-1.55c-5.83,-0.51 -11.56,-1.8 -17.04,-3.83c-7.48,-2.78 -12.21,-4.61 -14.19,-5.51c-3.13,-1.4 -6.56,-4.62 -9.28,-6.61c-9.35,-6.84 -16.56,-17.37 -19.23,-28.88c-2.69,-11.63 -3.21,-13.86 -1.55,-6.7c-1.65,-7.13 -2.4,-14.44 -2.23,-21.76c0.01,-0.55 0.04,-1.9 0.09,-4.08c0.99,-5.02 1.61,-8.15 1.85,-9.41c0.99,-5.03 3.07,-9.78 6.1,-13.92c1.37,-1.87 1.47,-2 2.98,-4.07c2.57,-3.5 5.49,-6.73 8.73,-9.62c1.4,-1.25 4.89,-4.38 10.49,-9.38l-11.65,21.41z"/>
  <path id="c1PlL2mo8M" d="m202.15,377.17c10.59,-0.4 17.2,-0.65 19.84,-0.75c9.09,-0.34 17.95,2.91 24.66,9.05c1.05,0.95 3.66,3.35 7.85,7.17l-10.63,1.27c-0.16,0.02 -0.25,0.03 -0.29,0.04c-7,0.84 -14.09,-0.13 -20.61,-2.81c-2.87,-1.17 -10.02,-4.11 -21.47,-8.81l0.65,-5.16z"/>
 </defs>
 <g>
  <title>background</title>
  <rect fill="none" id="canvas_background" height="62" width="52" y="-1" x="-1"/>
 </g>
 <g>
  <title>Layer 1</title>
  <g stroke="null" id="svg_1">
   <g stroke="null" id="svg_2">
    <g stroke="null" id="svg_3">
     <use transform="matrix(0.24172824621200562,0,0,0.234734907746315,0.8772492385933219,50.83655447344336) " stroke="null" x="-62.6356" y="-355.60315" id="svg_4" fill="#3f2b0a" xlink:href="#b2xIMBipv"/>
    </g>
    <g stroke="null" id="svg_5">
     <use transform="matrix(0.24172824621200562,0,0,0.234734907746315,0.8772492385933219,50.83655447344336) " stroke="null" x="-62.6356" y="-355.60315" id="svg_6" fill="#99180b" xlink:href="#a2gMAz2HSS"/>
    </g>
    <g stroke="null" id="svg_7">
     <use transform="matrix(0.24172824621200562,0,0,0.234734907746315,0.8772492385933219,50.83655447344336) " stroke="null" x="-62.6356" y="-355.60315" id="svg_8" fill="#3f2b0a" xlink:href="#c12pcZ9ThM"/>
    </g>
    <g stroke="null" id="svg_9">
     <use transform="matrix(0.24172824621200562,0,0,0.234734907746315,0.8772492385933219,50.83655447344336) " stroke="null" x="-62.6356" y="-355.60315" id="svg_10" fill-opacity="0.98" fill="#3f2b0a" xlink:href="#c1PlL2mo8M"/>
    </g>
   </g>
  </g>
 </g>
</svg>